<?xml version="1.0" standalone="no"?><!DOCTYPE svg PUBLIC "-//W3C//DTD SVG 1.1//EN" "http://www.w3.org/Graphics/SVG/1.1/DTD/svg11.dtd"><svg t="1679229526531" class="icon" viewBox="0 0 1024 1024" version="1.1" xmlns="http://www.w3.org/2000/svg" p-id="10877" xmlns:xlink="http://www.w3.org/1999/xlink" width="200" height="200"><path d="M878.24384 373.80096c-6.22592 0-485.53984 45.64992-485.53984 45.64992L436.26496 921.6l305.02912-20.74624 136.94976-527.0528z" fill="#D93327" p-id="10878"></path><path d="M1004.81024 203.65312l-126.5664 170.14784-136.94976 527.0528 112.04608-176.37376z" fill="#D8497F" p-id="10879"></path><path d="M19.18976 282.50112l448.2048-149.4016 537.41568 70.5536-126.5664 170.14784-485.56032 45.64992z" fill="#F45A52" p-id="10880"></path><path d="M436.26496 921.6l-10.42432-120.05376-4.23936-49.00864-12.24704-141.14816-4.48512-51.56864-12.1856-140.36992-209.22368-76.71808-11.48928-4.1984-152.7808-56.03328 42.3936 124.928 20.39808 60.14976 37.04832 109.21984 20.29568 59.78112 37.56032 110.71488L274.71872 813.056l39.28064 26.37824z" fill="#C11D14" p-id="10881"></path><path d="M351.96928 165.35552l20.93056 71.14752-128.32768 51.6096h170.16832l80.91648 65.24928L584.92928 286.72l164.59776-8.37632-114.3808-43.23328 32.09216-75.32544-154.84928 37.66272z" fill="#B51612" p-id="10882"></path><path d="M351.96928 146.96448l20.93056 71.12704-128.32768 51.6096h170.16832l80.91648 65.24928 89.27232-66.64192 164.59776-8.35584-114.3808-43.25376 32.09216-75.32544-154.84928 37.66272z" fill="#5EC538" p-id="10883"></path><path d="M499.22048 245.0432l-9.6256-117.78048L430.08 120.44288l29.26592 94.76096c6.18496 19.98848 22.58944 32.256 39.87456 29.83936z" fill="#1C782D" p-id="10884"></path><path d="M526.09024 216.35072V102.4l-36.49536 24.86272 9.6256 117.78048c14.19264 2.4576 26.86976-11.07968 26.86976-28.69248z" fill="#20A161" p-id="10885"></path><path d="M430.10048 120.44288L526.09024 102.4l-36.49536 24.86272z" fill="#44BF4D" p-id="10886"></path><path d="M342.81472 474.13248l-45.09696 78.11072-45.09696-104.42752zM367.7184 699.5968l-45.09696 78.11072-45.09696-104.448zM216.94464 523.93984l-45.09696 78.11072-45.09696-104.448zM574.91456 560.51712l-52.55168 94.55616-45.09696-86.67136zM808.77568 434.85184l-52.55168 94.55616-45.09696-86.67136zM759.95136 630.94784l-52.55168 94.53568-45.09696-86.67136z" fill="#F28006" p-id="10887"></path><path d="M936.38656 338.71872l-31.29344 119.13216-15.79008-67.25632zM889.30304 521.8304L866.304 609.40288l-11.61216-49.43872zM843.38688 634.42944l-22.99904 87.57248-11.61216-49.43872z" fill="#EC9375" p-id="10888"></path><path d="M574.91456 755.44576l-52.55168 94.53568-45.09696-86.65088z" fill="#F28006" p-id="10889"></path></svg>